<svg id="Layer_2" data-name="Layer 2" xmlns="http://www.w3.org/2000/svg" xmlns:xlink="http://www.w3.org/1999/xlink" viewBox="0 0 400 300" width="406" height="306" class="illustration styles_illustrationTablet__1DWOa"><defs><linearGradient id="linear-gradient" x1="136.78" y1="219.17" x2="157.35" y2="182.16" gradientUnits="userSpaceOnUse"><stop offset="0" stop-opacity="0"></stop><stop offset="0.99" stop-color="#552800"></stop></linearGradient><linearGradient id="linear-gradient-2" x1="304.57" y1="185.46" x2="330.11" y2="161.43" xlink:href="#linear-gradient"></linearGradient></defs><title>PP</title><path d="M194.51,274.53,22,172.58c-5.49-3.08-10.2-8.15-4.85-11.46L190.29,61.34c2.6-1.61,6.54-2.66,9.18-1.13L380.54,165.3c5.49,3.19,6.48,12.1,1,15.29L217.25,274.36A22.94,22.94,0,0,1,194.51,274.53Z" fill="#ffdaae"></path><path d="M58.16,184.14c3.63,1.11,7.28,2.21,11,3a56.35,56.35,0,0,0,6.89.79l116,72.81,68.74-42.79L95.65,143.19,37.74,175.42C43.73,179.81,51.14,182,58.16,184.14Z" opacity="0.32" fill="url(#linear-gradient)"></path><path d="M67.94,157.93l56.9-33.31a11.8,11.8,0,0,1,11.78-.08L238,182.09a8,8,0,0,1,0,13.81l-55.6,31.9a17.37,17.37,0,0,1-17.45-.09l-97.07-57A7.39,7.39,0,0,1,67.94,157.93Z" fill="#68e1fd"></path><path d="M67.94,157.93l56.9-33.31a11.8,11.8,0,0,1,11.78-.08L238,182.09a8,8,0,0,1,0,13.81l-55.6,31.9a17.37,17.37,0,0,1-17.45-.09l-97.07-57A7.39,7.39,0,0,1,67.94,157.93Z" fill="#1e4549" opacity="0.33"></path><path d="M67.46,154.19l56.9-33.31a11.8,11.8,0,0,1,11.78-.08l101.39,57.54a8,8,0,0,1,0,13.81L182,224.06a17.37,17.37,0,0,1-17.45-.09l-97.07-57A7.39,7.39,0,0,1,67.46,154.19Z" fill="#68e1fd"></path><path d="M129.51,128.28l.13.07a2,2,0,0,1,1,1,1.08,1.08,0,0,1-.33,1.07l-1.1-.65a.55.55,0,0,0,0-.49,1,1,0,0,0-.45-.45l-.05,0a1.77,1.77,0,0,0-1-.22,2.07,2.07,0,0,0-1.06.34.89.89,0,0,0-.5.67c0,.24.14.44.45.63l0,0a2,2,0,0,0,.7.23,2.11,2.11,0,0,0,.77,0l1.1.66a3.83,3.83,0,0,1-1.71.25,4,4,0,0,1-1.62-.5l-.11-.06A2.27,2.27,0,0,1,125,130a1,1,0,0,1-.05-.87,1.75,1.75,0,0,1,.73-.8,3.38,3.38,0,0,1,1.25-.49,3.94,3.94,0,0,1,1.41,0A3.9,3.9,0,0,1,129.51,128.28Z" fill="#fff"></path><path d="M133.42,133a2.74,2.74,0,0,1-1.14-.19l-.45,1.56-1.15-.68.49-1.47-.24-.14-1.41.92-1-.62,3.74-2.43L134,131a2.08,2.08,0,0,1,.71.61.66.66,0,0,1,.1.59,1,1,0,0,1-.43.51A2,2,0,0,1,133.42,133Zm-.16-.89c.15-.1.22-.2.21-.31s-.12-.23-.32-.35l-.65-.38-.95.61.65.38.07,0a1.11,1.11,0,0,0,.5.15.83.83,0,0,0,.49-.15" fill="#fff"></path><path d="M142,136.89a1.65,1.65,0,0,1-.7.79,3.13,3.13,0,0,1-1.25.47,4,4,0,0,1-1.44,0,4.35,4.35,0,0,1-1.28-.47l-.15-.09-1.62-1,3.75-2.43,1.61,1a2.72,2.72,0,0,1,1,.86A1,1,0,0,1,142,136.89Zm-1.75.17c.34-.22.49-.46.45-.71s-.25-.5-.65-.74l-.49-.3-2.14,1.39.49.3.08,0a2.54,2.54,0,0,0,1.15.34,1.94,1.94,0,0,0,1.12-.32" fill="#fff"></path><polygon points="136.08 132.24 138.75 133.83 138.03 134.3 136.4 133.32 135.61 133.84 137.06 134.7 136.38 135.14 134.93 134.28 134.1 134.82 135.72 135.79 135 136.26 132.34 134.67 136.08 132.24" fill="#fff"></polygon><polygon points="143.78 136.82 144.81 137.44 141.07 139.87 140.03 139.25 143.78 136.82" fill="#fff"></polygon><polygon points="145.25 137.7 148.61 139.7 147.88 140.16 146.72 139.47 143.69 141.43 142.65 140.81 145.68 138.85 144.53 138.17 145.25 137.7" fill="#fff"></polygon><path d="M152.12,141.75l.13.07a2,2,0,0,1,1,1,1.08,1.08,0,0,1-.33,1.07l-1.1-.65a.53.53,0,0,0,0-.49,1,1,0,0,0-.45-.45l-.05,0a1.77,1.77,0,0,0-1-.22,2.06,2.06,0,0,0-1.06.34c-.33.21-.5.44-.5.67s.14.44.45.63l0,0a1.93,1.93,0,0,0,.7.23,2.11,2.11,0,0,0,.77,0l1.1.66a3.76,3.76,0,0,1-1.71.25,4,4,0,0,1-1.65-.51l-.08,0a2.22,2.22,0,0,1-.85-.81,1,1,0,0,1-.06-.87,1.8,1.8,0,0,1,.73-.8,3.38,3.38,0,0,1,1.25-.49,4,4,0,0,1,1.41,0A3.9,3.9,0,0,1,152.12,141.75Z" fill="#fff"></path><path d="M157.26,144.89l-2.15,3.35-1.1-.66.42-.6-1.61-1-1,.29-1.09-.65,5.29-1.48Zm-3.48.84,1.07.64.84-1.22-1.91.57" fill="#fff"></path><path d="M160.46,149.09a2.68,2.68,0,0,1-1.14-.19l-.45,1.56-1.15-.68.49-1.47-.24-.14-1.42.92-1-.62,3.74-2.43L161,147.1a2.06,2.06,0,0,1,.7.61.7.7,0,0,1,.11.59,1,1,0,0,1-.44.5A1.9,1.9,0,0,1,160.46,149.09Zm-.65-.74a.85.85,0,0,0,.5-.14c.14-.1.21-.2.2-.32s-.12-.23-.32-.35l-.64-.38-1,.62.65.38,0,0a1.26,1.26,0,0,0,.53.17" fill="#fff"></path><path d="M165.81,151a1.62,1.62,0,0,1-.71.8,3.18,3.18,0,0,1-1.25.47,4,4,0,0,1-1.43,0,4.51,4.51,0,0,1-1.33-.49l-.11-.06-1.61-1,3.74-2.43,1.62,1a2.72,2.72,0,0,1,1,.86A1,1,0,0,1,165.81,151Zm-1.75.17q.5-.33.45-.71c0-.26-.25-.5-.65-.74l-.5-.29-2.14,1.39.5.29.08,0a2.54,2.54,0,0,0,1.15.34,1.94,1.94,0,0,0,1.12-.32" fill="#fff"></path><polygon points="103.29 142.71 105.11 143.8 100.13 147.04 99.16 146.46 103.39 143.72 102.53 143.2 103.29 142.71" fill="#fff"></polygon><path d="M108.83,145.9l.1.06c.55.33.86.67.92,1s-.14.68-.59,1a3.64,3.64,0,0,1-1.48.49,10.74,10.74,0,0,1-2,.09,18,18,0,0,1-2-.2l2.7,1.61-.66.43-4-2.36.59-.38a26.69,26.69,0,0,0,3.63.25,4.28,4.28,0,0,0,2.18-.43.7.7,0,0,0,.39-.52c0-.18-.15-.37-.47-.56l-.06,0a1.75,1.75,0,0,0-1-.23,2.44,2.44,0,0,0-1.08.35l-.89-.53a3.54,3.54,0,0,1,1.91-.49A3.73,3.73,0,0,1,108.83,145.9Z" fill="#fff"></path><path d="M118.36,155.68l.81.48-.71.46-.79-.48-1.08.7-.93-.55,1.07-.7-2.89-1.72.68-.44,6.11-.44,1,.59Zm-.86-.52,2.29-1.48-4.3.29,2,1.19" fill="#fff"></path><path d="M114.32,149.09l.12.07a2.39,2.39,0,0,1,.79.69.78.78,0,0,1,.13.67,1,1,0,0,1-.47.56,2,2,0,0,1-1.09.34,2.64,2.64,0,0,1-1.23-.27l0,0a1.5,1.5,0,0,1,.48.84q0,.39-.47.72a2.52,2.52,0,0,1-1.5.38,3.58,3.58,0,0,1-1.64-.49l-.12-.07a2.1,2.1,0,0,1-1.07-1.14q-.15-.6.56-1.16l.91.54a.7.7,0,0,0-.32.64c0,.23.22.44.56.65l.07,0a1.87,1.87,0,0,0,.88.25,1.49,1.49,0,0,0,.82-.22c.27-.18.36-.4.27-.64a1.93,1.93,0,0,0-.85-.77l-.22-.13.67-.43.22.13.18.11a1.8,1.8,0,0,0,1.91.17c.23-.15.33-.31.3-.49a.86.86,0,0,0-.47-.52l-.07,0a1.88,1.88,0,0,0-.85-.24,2,2,0,0,0-1,.22l-.9-.54a3.09,3.09,0,0,1,1.7-.41A3.8,3.8,0,0,1,114.32,149.09Z" fill="#fff"></path><path d="M136.66,165.22c0,.38-.23.74-.76,1.09a2.86,2.86,0,0,1-1.07.42,3.35,3.35,0,0,1-1.25,0,3.62,3.62,0,0,1-1.16-.41l-.14-.08c-.83-.49-1.17-1-1-1.44a3.09,3.09,0,0,1,1.39-1.48,6,6,0,0,1,2.5-1,3.51,3.51,0,0,1,2.17.46l.12.07c.55.33.85.68.87,1a1.21,1.21,0,0,1-.55,1l-.87-.52c.46-.42.4-.79-.16-1.13l-.05,0a2.07,2.07,0,0,0-1.3-.24,4,4,0,0,0-1.64.69l-.23.16a2.28,2.28,0,0,1,1.13-.08,3.2,3.2,0,0,1,1.09.37l.08,0Q136.62,164.65,136.66,165.22Zm-1.62.57c.34-.22.49-.44.47-.68s-.22-.46-.57-.67l-.06,0a2.52,2.52,0,0,0-1-.3,1.66,1.66,0,0,0-1.06.25.83.83,0,0,0-.46.68q0,.38.6.74l.06,0a2.17,2.17,0,0,0,1,.28,1.78,1.78,0,0,0,1-.29" fill="#fff"></path><path d="M129.58,158.27l3.67,2.19-.72.46-2.82-1.68-1.48,1a2.9,2.9,0,0,1,.9.1,3.68,3.68,0,0,1,.85.34l.06,0a1.93,1.93,0,0,1,.77.74.82.82,0,0,1,0,.73,1.72,1.72,0,0,1-.63.64,3.26,3.26,0,0,1-1.77.52,3.53,3.53,0,0,1-1.81-.48l-.13-.08a2,2,0,0,1-1-1.13,1,1,0,0,1,.51-1.08l.91.54a.66.66,0,0,0-.25.6,1,1,0,0,0,.51.58l.06,0a2,2,0,0,0,1.05.27,2.05,2.05,0,0,0,1-.34c.3-.2.45-.4.43-.63s-.2-.44-.55-.65l-.05,0a2.31,2.31,0,0,0-.74-.27,2.19,2.19,0,0,0-.78,0l-.89-.53Z" fill="#fff"></path><path d="M147,172.2a1,1,0,0,1-.51.69,2.62,2.62,0,0,1-1.72.38,4.54,4.54,0,0,1-1.83-.58l-.12-.07a2.31,2.31,0,0,1-1.13-1.18c-.12-.41.06-.77.55-1.08a2.16,2.16,0,0,1,1.09-.35,3.49,3.49,0,0,1,1.31.19.89.89,0,0,1-.3-.71.9.9,0,0,1,.46-.61,2,2,0,0,1,.9-.3,3.23,3.23,0,0,1,1.16.08,4.43,4.43,0,0,1,1.14.45l.13.07a2.68,2.68,0,0,1,.89.76.83.83,0,0,1-.25,1.29,2,2,0,0,1-.95.31,3.11,3.11,0,0,1-1.16-.16A1,1,0,0,1,147,172.2Zm-1.38.12c.3-.19.4-.4.32-.63a1.44,1.44,0,0,0-.67-.67l-.08,0a2.66,2.66,0,0,0-1-.33,1.54,1.54,0,0,0-1,.22c-.28.19-.39.4-.34.63a1.26,1.26,0,0,0,.65.69l.08,0a2.5,2.5,0,0,0,1.06.33,1.55,1.55,0,0,0,1-.24m0-2.82c-.25.17-.35.35-.3.55a1.1,1.1,0,0,0,.57.6l.08,0a2.16,2.16,0,0,0,.91.28,1.37,1.37,0,0,0,.88-.21c.25-.17.35-.35.3-.56a1.15,1.15,0,0,0-.57-.6l-.08,0a2.15,2.15,0,0,0-.91-.28,1.41,1.41,0,0,0-.89.21" fill="#fff"></path><polygon points="140.63 164.92 144.4 167.16 143.79 167.56 137.26 169.15 136.3 168.57 142.77 167.06 139.94 165.37 140.63 164.92" fill="#fff"></polygon><path d="M169.22,182.73a2.92,2.92,0,0,1-1.37,1.49,5.74,5.74,0,0,1-2.35.92,3.47,3.47,0,0,1-2.18-.45l-.12-.07c-.76-.45-1.07-.92-.94-1.4a3,3,0,0,1,1.38-1.5,5.59,5.59,0,0,1,2.34-.92,3.46,3.46,0,0,1,2.17.46l.12.07C169,181.77,169.35,182.24,169.22,182.73Zm-2.29.94a3,3,0,0,0,1.06-1c.15-.3,0-.58-.48-.85l-.08,0a1.83,1.83,0,0,0-1.31-.22,4.66,4.66,0,0,0-1.55.7,3,3,0,0,0-1.08,1c-.15.3,0,.58.49.86l.05,0a1.87,1.87,0,0,0,1.35.23,5,5,0,0,0,1.56-.71" fill="#fff"></path><polygon points="162.5 177.97 164.33 179.06 159.34 182.3 158.37 181.72 162.6 178.97 161.75 178.47 162.5 177.97" fill="#fff"></polygon><path d="M160.21,177.24a3,3,0,0,1-1.37,1.46,6.31,6.31,0,0,1-2.48,1,3.37,3.37,0,0,1-2.15-.43l-.11-.06c-.56-.33-.87-.69-.91-1.06a1.18,1.18,0,0,1,.52-1l.87.52a.7.7,0,0,0-.3.59.82.82,0,0,0,.47.56l.05,0a2,2,0,0,0,1.29.24,4,4,0,0,0,1.65-.69l.24-.16a2.52,2.52,0,0,1-1.15.08,3.27,3.27,0,0,1-1.09-.37l-.08,0q-.84-.5-.88-1.07c0-.38.23-.74.75-1.08a3,3,0,0,1,1.08-.43,3.59,3.59,0,0,1,1.26,0,3.73,3.73,0,0,1,1.15.42l.14.08C160,176.29,160.34,176.77,160.21,177.24Zm-1.58.45a.83.83,0,0,0,.46-.68c0-.25-.2-.5-.6-.74l-.06,0a2.14,2.14,0,0,0-1-.27,1.78,1.78,0,0,0-1,.3c-.34.22-.49.44-.47.68s.21.46.56.67l.05,0a2.53,2.53,0,0,0,.63.24,2.39,2.39,0,0,0,.77,0,1.47,1.47,0,0,0,.69-.24" fill="#fff"></path><path d="M175.05,186.2a2.91,2.91,0,0,1-1.37,1.49,5.56,5.56,0,0,1-2.35.92,3.43,3.43,0,0,1-2.15-.45l-.14-.08c-.75-.45-1.07-.91-.95-1.4a3,3,0,0,1,1.39-1.5,5.65,5.65,0,0,1,2.34-.92,3.5,3.5,0,0,1,2.18.46l.12.07Q175.25,185.48,175.05,186.2Zm-2.29.94a2.91,2.91,0,0,0,1.07-1c.13-.3,0-.58-.48-.85l-.06,0a1.88,1.88,0,0,0-1.34-.24,4.86,4.86,0,0,0-1.55.7,3.07,3.07,0,0,0-1.08,1c-.14.29,0,.58.49.86l.08,0a1.81,1.81,0,0,0,1.31.22,4.77,4.77,0,0,0,1.56-.71" fill="#fff"></path><path d="M107.16,158.3,104.81,162l-.82-.49.54-.8-2-1.2-1.27.37-.82-.49,5.84-1.61Zm-3.9,1,1.58.94L106,158.5l-2.73.79" fill="#fff"></path><polygon points="101.08 154.6 104.17 156.43 103.64 156.78 98.28 157.42 100.59 158.8 100.04 159.15 96.89 157.27 97.4 156.93 102.75 156.27 100.54 154.95 101.08 154.6" fill="#fff"></polygon><polygon points="99.52 153.67 100.29 154.12 96.13 156.82 95.37 156.37 99.52 153.67" fill="#fff"></polygon><polygon points="96.52 151.88 97.28 152.33 93.65 154.69 95.29 155.67 94.77 156.01 92.36 154.58 96.52 151.88" fill="#fff"></polygon><polygon points="93.05 149.81 95.77 151.43 95.22 151.79 93.27 150.62 92.01 151.44 93.77 152.48 93.25 152.82 91.49 151.78 90.2 152.61 92.16 153.77 91.61 154.13 88.89 152.51 93.05 149.81" fill="#fff"></polygon><polygon points="120.8 166.34 121.56 166.79 119.82 167.92 122.06 169.26 123.8 168.13 124.57 168.58 120.41 171.28 119.64 170.82 121.51 169.61 119.27 168.28 117.41 169.49 116.64 169.03 120.8 166.34" fill="#fff"></polygon><polygon points="116.81 163.96 120.22 166 119.69 166.35 118.36 165.56 114.74 167.9 113.97 167.44 117.58 165.09 116.26 164.31 116.81 163.96" fill="#fff"></polygon><polygon points="113.7 162.11 116.42 163.73 115.88 164.08 113.93 162.92 112.67 163.74 114.42 164.78 113.9 165.12 112.15 164.07 110.86 164.91 112.81 166.08 112.26 166.43 109.55 164.81 113.7 162.11" fill="#fff"></polygon><path d="M110.34,163.06a.72.72,0,0,1-.39.58,2,2,0,0,1-1.21.3,3.1,3.1,0,0,1-1.33-.42l-.12-.07-1.89-1.13,4.16-2.7,1.85,1.1a1.64,1.64,0,0,1,.82.83c.07.28-.06.52-.38.73a1.74,1.74,0,0,1-.88.27,2.35,2.35,0,0,1-.95-.16A.79.79,0,0,1,110.34,163.06Zm-1.09.06c.21-.13.29-.29.25-.46a1,1,0,0,0-.51-.52l-1-.57-1.32.86,1,.58,0,0a1.91,1.91,0,0,0,.8.26,1.15,1.15,0,0,0,.72-.17m.52-2.67-1.24.8.95.56.07,0a1.65,1.65,0,0,0,.7.22,1.14,1.14,0,0,0,.68-.17.42.42,0,0,0,.24-.42c0-.15-.2-.32-.48-.49l-.92-.55" fill="#fff"></path><polygon points="152.79 185.39 154.31 186.3 150.16 189 149.35 188.51 152.88 186.23 152.16 185.8 152.79 185.39" fill="#fff"></polygon><polygon points="161.81 189.02 162.56 189.47 154.13 192.65 153.39 192.21 161.81 189.02" fill="#fff"></polygon><path d="M163.13,191.45l.07,0c.46.28.71.56.76.85s-.12.57-.49.81a3.1,3.1,0,0,1-1.24.41,8.84,8.84,0,0,1-1.66.07,14.21,14.21,0,0,1-1.7-.17l2.26,1.34-.55.35-3.29-2,.5-.32a22.23,22.23,0,0,0,3,.21,3.59,3.59,0,0,0,1.82-.36c.21-.14.33-.28.33-.43s-.12-.31-.39-.47l-.06,0a1.43,1.43,0,0,0-.79-.18,2,2,0,0,0-.89.29l-.74-.44a2.93,2.93,0,0,1,1.58-.41A3.21,3.21,0,0,1,163.13,191.45Z" fill="#fff"></path><path d="M156.74,187.65l.09.05c.46.28.71.56.76.85s-.11.57-.49.81a3.07,3.07,0,0,1-1.24.41,8.84,8.84,0,0,1-1.66.07,15.1,15.1,0,0,1-1.69-.16l2.25,1.34-.54.35-3.31-2,.5-.32a22.23,22.23,0,0,0,3,.21,3.59,3.59,0,0,0,1.82-.36c.22-.14.33-.28.33-.44s-.13-.31-.39-.47l0,0a1.51,1.51,0,0,0-.82-.2,2.17,2.17,0,0,0-.9.29l-.74-.44a2.92,2.92,0,0,1,1.59-.41A3.16,3.16,0,0,1,156.74,187.65Z" fill="#fff"></path><path d="M165.61,192.94l3.05,1.82-.59.38-2.35-1.39-1.24.8a2.41,2.41,0,0,1,.75.08,3.11,3.11,0,0,1,.71.29l.06,0a1.54,1.54,0,0,1,.64.61.66.66,0,0,1,0,.61,1.41,1.41,0,0,1-.52.53,2.67,2.67,0,0,1-1.47.44,3,3,0,0,1-1.52-.4l-.1-.06a1.65,1.65,0,0,1-.86-.94.88.88,0,0,1,.43-.9l.76.45a.52.52,0,0,0-.2.5.79.79,0,0,0,.43.48l.06,0a1.57,1.57,0,0,0,.86.22,1.69,1.69,0,0,0,.87-.28c.25-.17.37-.34.36-.52s-.16-.37-.46-.54l-.05,0a1.84,1.84,0,0,0-.61-.22,1.58,1.58,0,0,0-.65,0l-.75-.45Z" fill="#fff"></path><polygon points="225.07 185.68 225.93 186.19 224.25 187.28 227.51 187.14 228.54 187.75 224.9 187.86 224.8 190.18 223.77 189.56 223.9 187.51 222.18 188.62 221.33 188.11 225.07 185.68" fill="#fff"></polygon><polygon points="220.68 183.06 221.53 183.57 220.88 186.37 223.44 184.71 224.3 185.22 220.55 187.65 219.7 187.14 220.33 184.35 217.79 186 216.93 185.49 220.68 183.06" fill="#fff"></polygon><path d="M218.6,181.88l-2.13,3.34-.9-.54L216,184l-1.72-1-1,.31-.91-.54,5.27-1.46Zm-3.5.88,1.26.75.95-1.4-2.21.65" fill="#fff"></path><path d="M213.44,181.41a.69.69,0,0,1-.36.52,1.8,1.8,0,0,1-1.1.27,2.86,2.86,0,0,1-1.2-.38l-.12-.07-1.83-1.09,3.74-2.43,1.8,1.07c.43.26.69.51.75.75s-.05.47-.35.66a1.52,1.52,0,0,1-.78.25,2.08,2.08,0,0,1-.84-.14A.72.72,0,0,1,213.44,181.41Zm-1.69.07a.89.89,0,0,0,.56-.14c.17-.11.23-.23.2-.36s-.16-.26-.4-.4l-.8-.48-1,.67.81.48.07,0a1.44,1.44,0,0,0,.58.18m1.07-2.35-1,.63.76.45,0,0a1.31,1.31,0,0,0,.57.18.83.83,0,0,0,.52-.13c.15-.1.22-.21.2-.33s-.15-.25-.37-.38l-.76-.45" fill="#fff"></path><g style="isolation: isolate;"><path d="M120.56,133.92,125.8,137l-.88.57-9.2-2.59-.42-.25,1.41-.91a4,4,0,0,1,3.76,0Z" fill="#f8c401"></path><polygon points="125.38 137.74 126.14 137.25 125.97 137.15 128.23 138.49 128.18 138.53 125.38 137.74" fill="#f8c401"></polygon><polygon points="122.61 139.12 115.72 135.03 124.93 137.61 122.61 139.12" fill="#f8c401"></polygon><polygon points="115.31 134.78 115.72 135.03 122.61 139.12 122.31 139.31 115.02 134.97 115.16 134.87 115.31 134.78" fill="#f15a24"></polygon><polygon points="125.38 137.74 128.18 138.53 125.04 140.57 122.94 139.32 125.38 137.74" fill="#f8c401"></polygon><polygon points="128.4 138.59 128.57 138.69 125.08 140.96 122.65 139.51 122.94 139.32 125.04 140.57 128.18 138.53 128.23 138.49 128.4 138.59" fill="#f15a24"></polygon><path d="M111.44,137.28,115,135l7.29,4.35-3.61,2.34-7.3-4.34Z" fill="#f8c401"></path><polygon points="125.97 137.15 126.14 137.25 125.38 137.74 122.94 139.32 122.65 139.51 119.04 141.86 118.7 141.66 122.31 139.31 122.61 139.12 124.93 137.61 125.8 137.04 125.97 137.15" fill="#f15a24"></polygon><path d="M111.7,139.67c-1-.59-1.21-1.5-.56-2.14l7.26,4.32-1.46.95Z" fill="#f8c401"></path><polygon points="118.7 141.66 119.04 141.86 121.14 143.1 120.84 143.3 118.74 142.05 118.41 141.85 111.14 137.52 111.11 137.5 111.39 137.32 118.7 141.66" fill="#f15a24"></polygon><polygon points="116.95 142.79 118.41 141.85 118.74 142.05 117.29 142.99 117.28 143 116.95 142.79" fill="#f15a24"></polygon><polygon points="117.29 142.99 118.74 142.05 120.84 143.3 119.38 144.24 117.29 142.99" fill="#f8c401"></polygon><polygon points="123.7 141.85 125.39 142.85 121.4 145.44 121.57 145.54 119.71 144.44 123.7 141.85" fill="#f8c401"></polygon><polygon points="123.67 141.46 126.02 142.86 123.49 144.5 123.19 144.7 121.74 145.64 121.57 145.54 121.4 145.44 125.39 142.85 123.7 141.85 119.71 144.44 119.38 144.24 120.84 143.3 121.14 143.1 123.67 141.46" fill="#f15a24"></polygon><path d="M131.39,140.37c1.12.68,1.25,1.74.25,2.39l-5.27,3.42,0,0-2.85-1.7,2.53-1.64-2.35-1.4-2.53,1.64-2.1-1.25,3.61-2.34,2.43,1.45,3.49-2.27-.17-.1Z" fill="#f8c401"></path><polygon points="126.34 146.2 126.19 146.3 126.04 146.39 126.01 146.37 123.19 144.7 123.49 144.5 126.34 146.2" fill="#f15a24"></polygon></g><path d="M121.74,145.64l1.46-.95,2.81,1.67a4.14,4.14,0,0,1-3.4-.21l-.08,0-1-.58Z" fill="#f8c401"></path><ellipse cx="165.95" cy="207.71" rx="8.11" ry="5.02" fill="#f15a24"></ellipse><ellipse cx="173.32" cy="211.71" rx="8.11" ry="5.02" fill="#fbb03b"></ellipse><path d="M299.45,190.79c3.63,1.11,7.28,2.21,11,3a56.35,56.35,0,0,0,6.89.79l3.87-2.62L348,172l-20.5-6.82L279,182.07C285,186.46,292.43,188.63,299.45,190.79Z" opacity="0.32" fill="url(#linear-gradient-2)"></path><path d="M337.32,151.33c-4.84-.42-9.93-1.88-13.51-5.19v14.34a14.88,14.88,0,0,0,14.88,14.88h0a14.88,14.88,0,0,0,14.88-14.88V145.9C348.5,148,342.74,151.8,337.32,151.33Z" fill="#68e1fd"></path><ellipse cx="338.7" cy="146.05" rx="14.88" ry="7.89" fill="#5ed18d"></ellipse><path d="M338.7,147.38s-10.12-1.49-12.8-17.86C325.9,129.53,334.53,134.29,338.7,147.38Z" fill="#5ed18d"></path><path d="M340.19,145.3s-11.61-20.83,0-34.82A58.37,58.37,0,0,1,340.19,145.3Z" fill="#5ed18d"></path><path d="M338.7,132.21s-10.12-1.49-12.8-17.86C325.9,114.35,334.53,119.11,338.7,132.21Z" fill="#5ed18d"></path><path d="M339.93,138.88s-2.53-9.91,11.53-18.7C351.46,120.18,350.4,130,339.93,138.88Z" fill="#5ed18d"></path><ellipse cx="338.7" cy="146.05" rx="14.88" ry="7.89" fill="#146666"></ellipse><path d="M338.7,147.38s-10.12-1.49-12.8-17.86C325.9,129.53,334.53,134.29,338.7,147.38Z" fill="#5ed18d"></path><path d="M340.19,145.3s-11.61-20.83,0-34.82A58.37,58.37,0,0,1,340.19,145.3Z" fill="#5ed18d"></path><path d="M338.7,132.21s-10.12-1.49-12.8-17.86C325.9,114.35,334.53,119.11,338.7,132.21Z" fill="#5ed18d"></path><path d="M339.93,138.88s-2.53-9.91,11.53-18.7C351.46,120.18,350.4,130,339.93,138.88Z" fill="#5ed18d"></path><path d="M128.14,157.34,185,124a11.8,11.8,0,0,1,11.78-.08l101.39,57.54a8,8,0,0,1,0,13.81l-55.6,31.9a17.37,17.37,0,0,1-17.45-.09l-97.07-57A7.39,7.39,0,0,1,128.14,157.34Z" fill="#ba3d3a"></path><path d="M128.14,154.19,185,120.88a11.8,11.8,0,0,1,11.78-.08l101.39,57.54a8,8,0,0,1,0,13.81l-55.6,31.9A17.37,17.37,0,0,1,225.2,224l-97.07-57A7.39,7.39,0,0,1,128.14,154.19Z" fill="#dd5e57"></path><path d="M187.42,131.13l.1.05a2,2,0,0,1,1,1.05,1.06,1.06,0,0,1-.32,1.08l-1.1-.66a.49.49,0,0,0,0-.48,1,1,0,0,0-.44-.45l0,0a1.87,1.87,0,0,0-1-.23,2.1,2.1,0,0,0-1.06.34c-.33.21-.49.43-.49.67a.73.73,0,0,0,.44.62l.07,0a2,2,0,0,0,.68.22,2.06,2.06,0,0,0,.78,0l1.1.65a3.65,3.65,0,0,1-1.71.25,3.89,3.89,0,0,1-1.62-.49l-.11-.06a2.18,2.18,0,0,1-.86-.81,1,1,0,0,1-.06-.87,1.86,1.86,0,0,1,.73-.8,3.44,3.44,0,0,1,1.25-.49,4,4,0,0,1,2.64.44Z" fill="#fff"></path><polygon points="183.26 140.57 186.06 141.36 182.92 143.39 180.83 142.15 183.26 140.57" fill="#f8c401"></polygon><g style="isolation: isolate;"><polygon points="180.49 141.95 173.63 137.86 182.81 140.44 180.49 141.95" fill="#f8c401"></polygon><polygon points="173.19 137.6 173.63 137.86 180.49 141.95 180.2 142.14 172.9 137.8 173.19 137.6" fill="#f15a24"></polygon><polygon points="186.12 141.32 186.45 141.52 182.96 143.79 180.54 142.34 180.83 142.15 182.92 143.39 186.06 141.36 186.12 141.32" fill="#f15a24"></polygon><path d="M169.33,140.11l3.57-2.32,7.3,4.34-3.61,2.34-7.3-4.35Z" fill="#f8c401"></path><polygon points="183.69 139.88 184.03 140.08 183.26 140.57 180.83 142.15 180.54 142.34 176.93 144.69 176.59 144.48 180.2 142.14 180.49 141.95 182.81 140.44 183.69 139.88" fill="#f15a24"></polygon><path d="M176.29,144.67l-1.46.95.17.1-5.42-3.23c-1-.6-1.2-1.5-.55-2.15Z" fill="#f8c401"></path><polygon points="176.59 144.48 176.93 144.69 179.02 145.93 178.72 146.12 176.63 144.88 176.29 144.67 169.03 140.35 169 140.33 169.28 140.15 176.59 144.48" fill="#f15a24"></polygon><polygon points="174.83 145.62 176.29 144.67 176.63 144.88 175.17 145.82 175 145.72 174.83 145.62" fill="#f15a24"></polygon><polygon points="178.72 146.12 177.26 147.07 177.43 147.16 175.17 145.82 176.63 144.88 178.72 146.12" fill="#f8c401"></polygon><polygon points="181.59 144.68 183.27 145.68 179.28 148.27 179.45 148.37 177.6 147.27 181.59 144.68" fill="#f8c401"></polygon><polygon points="181.55 144.28 183.91 145.69 181.37 147.33 181.08 147.52 179.62 148.47 179.45 148.37 179.28 148.27 183.27 145.68 181.59 144.68 177.6 147.27 177.43 147.16 177.26 147.07 178.72 146.12 179.02 145.93 181.55 144.28" fill="#f15a24"></polygon><path d="M189.27,143.2c1.14.68,1.25,1.75.26,2.38L184.26,149l0,0-2.85-1.7,2.54-1.64-2.35-1.4L179,145.93l-2.09-1.25,3.61-2.34,2.43,1.44,3.49-2.26-.34-.2-.06,0-2.8-.79.76-.49-.34-.2-.88.57-9.18-2.58-.44-.26,1.41-.91a4,4,0,0,1,3.76,0l.08,0Z" fill="#f8c401"></path><polygon points="184.22 149.03 184.07 149.13 183.93 149.22 183.9 149.2 181.08 147.52 181.37 147.33 184.22 149.03" fill="#f15a24"></polygon><path d="M179.62,148.47l1.46-.95,2.82,1.68a4.13,4.13,0,0,1-3.4-.21l-.08,0Z" fill="#f8c401"></path></g><path d="M191.31,135.82a2.79,2.79,0,0,1-1.14-.19l-.46,1.56-1.14-.68.49-1.47-.24-.14-1.41.92-1-.61,3.75-2.43,1.76,1.05a2.07,2.07,0,0,1,.71.62.65.65,0,0,1,.1.59,1,1,0,0,1-.44.5A1.84,1.84,0,0,1,191.31,135.82Zm-.16-.89c.15-.1.21-.2.2-.32s-.13-.23-.33-.35l-.64-.38-.94.62.64.38,0,0a1.14,1.14,0,0,0,.53.16.84.84,0,0,0,.5-.14" fill="#fff"></path><path d="M218.34,151.92a2.74,2.74,0,0,1-1.14-.19l-.46,1.56-1.14-.68.49-1.47-.24-.14-1.42.92-1-.61,3.75-2.43,1.77,1.06a2.18,2.18,0,0,1,.71.61.69.69,0,0,1,.1.59,1,1,0,0,1-.44.5A1.84,1.84,0,0,1,218.34,151.92Zm-.16-.89c.15-.1.22-.2.2-.32s-.12-.23-.32-.35l-.65-.38-.94.62.64.38,0,0a1.2,1.2,0,0,0,.53.17.88.88,0,0,0,.49-.15" fill="#fff"></path><path d="M215.15,147.72,213,151.06l-1.11-.65.41-.61-1.6-1-.94.29-1.1-.65L214,147Zm-3.49.85,1.07.64.85-1.21-1.91.57" fill="#fff"></path><path d="M210,144.59l.1.06a2,2,0,0,1,1,1,1.06,1.06,0,0,1-.32,1.08l-1.1-.66a.49.49,0,0,0,0-.48,1,1,0,0,0-.44-.45l0,0a1.87,1.87,0,0,0-1-.23,2.1,2.1,0,0,0-1.06.34.9.9,0,0,0-.49.67.73.73,0,0,0,.44.62l.07,0a2,2,0,0,0,.68.22,2.06,2.06,0,0,0,.78,0l1.1.65a3.66,3.66,0,0,1-1.71.25,3.89,3.89,0,0,1-1.62-.49l-.11-.06a2.18,2.18,0,0,1-.86-.81,1,1,0,0,1-.05-.87,1.74,1.74,0,0,1,.73-.8,3.38,3.38,0,0,1,1.25-.49,4,4,0,0,1,2.65.44Z" fill="#fff"></path><g style="isolation: isolate;"><path d="M199.91,139.72a1.64,1.64,0,0,1-.7.79A3.26,3.26,0,0,1,198,141a4,4,0,0,1-1.44,0,4.5,4.5,0,0,1-1.32-.49l-.11-.06-1.61-1,3.74-2.43,1.61,1a2.68,2.68,0,0,1,1,.86A1,1,0,0,1,199.91,139.72Zm-1.75.17q.5-.33.45-.71c0-.26-.26-.5-.66-.75l-.49-.29-2.14,1.39.49.29.08,0a2.5,2.5,0,0,0,1.14.34,1.9,1.9,0,0,0,1.13-.31" fill="#fff"></path><polygon points="201.66 139.65 202.7 140.27 198.95 142.7 197.91 142.08 201.66 139.65" fill="#fff"></polygon><polygon points="203.13 140.53 206.49 142.52 205.77 142.99 204.61 142.3 201.58 144.26 200.54 143.64 203.56 141.68 202.42 140.99 203.13 140.53" fill="#fff"></polygon></g><polygon points="193.97 135.07 196.63 136.66 195.91 137.12 194.28 136.15 193.5 136.66 194.95 137.52 194.26 137.97 192.81 137.1 191.98 137.64 193.61 138.61 192.89 139.09 190.22 137.5 193.97 135.07" fill="#fff"></polygon><path d="M223.69,153.88a1.65,1.65,0,0,1-.7.79,3.26,3.26,0,0,1-1.25.47,4,4,0,0,1-1.44,0,4.39,4.39,0,0,1-1.29-.47l-.14-.08-1.61-1,3.74-2.43,1.61,1a2.66,2.66,0,0,1,1,.86A1,1,0,0,1,223.69,153.88Zm-1.75.17c.34-.22.49-.46.46-.72s-.26-.5-.66-.74l-.49-.3-2.14,1.39.48.29.08,0a2.45,2.45,0,0,0,1.15.33,1.88,1.88,0,0,0,1.12-.31" fill="#fff"></path><path d="M176.25,158.51l.79.48-.7.46-.8-.47-1.07.69-.93-.55,1.07-.7-2.89-1.72.67-.44,6.11-.44,1,.59Zm-.87-.51,2.29-1.49-4.29.29,2,1.19" fill="#fff"></path><path d="M172.18,151.9l.14.08a2.45,2.45,0,0,1,.8.69.78.78,0,0,1,.13.67,1.05,1.05,0,0,1-.48.56,2.06,2.06,0,0,1-1.09.33,2.63,2.63,0,0,1-1.23-.26l0,0a1.49,1.49,0,0,1,.49.83c0,.26-.13.5-.47.73a2.58,2.58,0,0,1-1.5.38,3.67,3.67,0,0,1-1.65-.49l-.12-.07a2.07,2.07,0,0,1-1.06-1.14q-.16-.6.56-1.16l.91.54a.69.69,0,0,0-.33.64,1,1,0,0,0,.56.65l0,0a2,2,0,0,0,.91.27,1.42,1.42,0,0,0,.82-.22c.28-.18.37-.39.27-.63a2,2,0,0,0-.84-.78l-.22-.13.66-.43.22.13.16.09a1.83,1.83,0,0,0,1.95.18q.34-.23.3-.5c0-.18-.19-.35-.46-.52l0,0a2,2,0,0,0-.9-.26,2,2,0,0,0-1,.22l-.91-.54a3.16,3.16,0,0,1,1.7-.4A3.73,3.73,0,0,1,172.18,151.9Z" fill="#fff"></path><path d="M166.72,148.73l.1.06c.55.33.86.67.92,1s-.14.68-.59,1a3.7,3.7,0,0,1-1.49.49,11,11,0,0,1-2,.09,17.85,17.85,0,0,1-2-.2l2.7,1.61-.66.43-4-2.35.59-.39a26.16,26.16,0,0,0,3.63.26,4.36,4.36,0,0,0,2.18-.44.74.74,0,0,0,.39-.52c0-.18-.15-.37-.47-.56l0,0a1.79,1.79,0,0,0-1-.24,2.44,2.44,0,0,0-1.07.35l-.9-.53a3.57,3.57,0,0,1,1.91-.49A3.79,3.79,0,0,1,166.72,148.73Z" fill="#fff"></path><polygon points="161.17 145.54 163 146.63 158.01 149.87 157.05 149.29 161.28 146.54 160.42 146.03 161.17 145.54" fill="#fff"></polygon><path d="M187.46,161.1l3.66,2.18-.71.46-2.82-1.68-1.48,1a2.81,2.81,0,0,1,.9.1,3.36,3.36,0,0,1,.81.32l.11.06a1.81,1.81,0,0,1,.77.74.82.82,0,0,1,0,.73,1.79,1.79,0,0,1-.62.64,3.36,3.36,0,0,1-1.77.53,3.6,3.6,0,0,1-1.83-.49l-.11-.06a1.93,1.93,0,0,1-1-1.13,1,1,0,0,1,.5-1.07l.91.54a.63.63,0,0,0-.24.6,1,1,0,0,0,.51.58l.06,0a2,2,0,0,0,1.05.27,2,2,0,0,0,1-.33c.3-.2.44-.41.43-.63s-.21-.44-.55-.65l0,0a2.35,2.35,0,0,0-.75-.27,2.11,2.11,0,0,0-.78,0l-.9-.54Z" fill="#fff"></path><polygon points="198.52 167.75 202.29 169.99 201.68 170.38 195.15 171.98 194.18 171.4 200.65 169.89 197.83 168.2 198.52 167.75" fill="#fff"></polygon><path d="M194.54,168c0,.38-.23.74-.76,1.09a3,3,0,0,1-1.08.43,3.43,3.43,0,0,1-1.25,0,3.9,3.9,0,0,1-1.2-.44l-.1-.06c-.82-.49-1.17-1-1-1.45a3,3,0,0,1,1.38-1.47,6.06,6.06,0,0,1,2.5-1,3.53,3.53,0,0,1,2.16.47l.12.07c.56.33.85.68.87,1a1.21,1.21,0,0,1-.55,1l-.88-.52c.46-.42.4-.8-.16-1.14l0,0a2.07,2.07,0,0,0-1.3-.24,4.1,4.1,0,0,0-1.64.68l-.23.16a2.44,2.44,0,0,1,1.13-.08,3.24,3.24,0,0,1,1.1.37l.08,0Q194.51,167.48,194.54,168Zm-1.62.57c.33-.22.49-.44.46-.68s-.21-.46-.56-.67l0,0a2.55,2.55,0,0,0-1-.31,1.62,1.62,0,0,0-1.06.24.84.84,0,0,0-.46.68q0,.38.6.74l.07,0a2.1,2.1,0,0,0,1,.28,1.76,1.76,0,0,0,1-.29" fill="#fff"></path><path d="M204.89,175a1,1,0,0,1-.51.69,2.69,2.69,0,0,1-1.72.39,4.54,4.54,0,0,1-1.8-.57l-.15-.09a2.27,2.27,0,0,1-1.13-1.18c-.12-.41.06-.77.55-1.09a2.25,2.25,0,0,1,1.09-.35,3.49,3.49,0,0,1,1.31.19.86.86,0,0,1-.3-.71.89.89,0,0,1,.46-.6,2.08,2.08,0,0,1,.9-.31,3.44,3.44,0,0,1,1.16.09,4.21,4.21,0,0,1,1.14.45l.12.07a3,3,0,0,1,.9.76.93.93,0,0,1,.19.72.9.9,0,0,1-.44.57,2,2,0,0,1-1,.31,2.84,2.84,0,0,1-1.16-.15A1.09,1.09,0,0,1,204.89,175Zm-1.38.12c.29-.19.39-.4.31-.63a1.37,1.37,0,0,0-.66-.67l-.08,0a2.76,2.76,0,0,0-1-.33,1.49,1.49,0,0,0-1,.22c-.29.19-.4.4-.34.64a1.26,1.26,0,0,0,.65.69l.08,0a2.47,2.47,0,0,0,1.06.33,1.57,1.57,0,0,0,1-.24m0-2.82c-.26.16-.36.35-.3.55a1.1,1.1,0,0,0,.57.6l.08,0a2.28,2.28,0,0,0,.92.29,1.37,1.37,0,0,0,.88-.21c.26-.16.36-.35.3-.56a1.09,1.09,0,0,0-.57-.6l-.08,0a2.18,2.18,0,0,0-.9-.28,1.39,1.39,0,0,0-.88.22" fill="#fff"></path><path d="M227.1,185.55a2.94,2.94,0,0,1-1.36,1.49,5.64,5.64,0,0,1-2.35.92,3.44,3.44,0,0,1-2.18-.45l-.12-.07c-.75-.45-1.06-.91-.94-1.39a3,3,0,0,1,1.38-1.51,5.61,5.61,0,0,1,2.35-.92,3.48,3.48,0,0,1,2.17.46l.12.07Q227.29,184.82,227.1,185.55Zm-2.29.94a2.91,2.91,0,0,0,1.07-1c.14-.29,0-.58-.48-.85l-.08,0a1.86,1.86,0,0,0-1.32-.23,4.82,4.82,0,0,0-1.54.71,3,3,0,0,0-1.08,1c-.14.29,0,.58.49.86l.08,0a1.81,1.81,0,0,0,1.31.22,4.77,4.77,0,0,0,1.56-.71" fill="#fff"></path><polygon points="220.39 180.8 222.21 181.89 217.22 185.13 216.26 184.55 220.49 181.8 219.63 181.29 220.39 180.8" fill="#fff"></polygon><path d="M218.08,180.07a2.94,2.94,0,0,1-1.36,1.46,6.29,6.29,0,0,1-2.49,1,3.35,3.35,0,0,1-2.15-.42l-.11-.06c-.57-.34-.86-.69-.91-1.07a1.13,1.13,0,0,1,.52-1l.87.52a.7.7,0,0,0-.31.59.86.86,0,0,0,.47.56l0,0a2.06,2.06,0,0,0,1.3.24,4.11,4.11,0,0,0,1.65-.69l.23-.16a2.44,2.44,0,0,1-1.14.08,3.24,3.24,0,0,1-1.1-.37l-.08,0c-.55-.33-.84-.69-.87-1.07s.22-.75.75-1.08a3.08,3.08,0,0,1,1.08-.43,3.39,3.39,0,0,1,1.26,0,3.71,3.71,0,0,1,1.19.43l.11.06C217.87,179.12,218.21,179.6,218.08,180.07Zm-1.57.45a.86.86,0,0,0,.47-.68c0-.25-.2-.5-.6-.74l0,0a2.19,2.19,0,0,0-1-.29,1.82,1.82,0,0,0-1,.3c-.33.22-.49.44-.47.68s.21.46.55.66l.05,0a2.54,2.54,0,0,0,1.41.3,1.57,1.57,0,0,0,.69-.24" fill="#fff"></path><path d="M232.94,189a2.92,2.92,0,0,1-1.37,1.49,5.65,5.65,0,0,1-2.35.92A3.47,3.47,0,0,1,227,191l-.12-.07c-.76-.45-1.07-.92-.94-1.4a3,3,0,0,1,1.38-1.5,5.68,5.68,0,0,1,2.34-.92,3.49,3.49,0,0,1,2.17.46l.12.07C232.76,188.08,233.07,188.54,232.94,189Zm-2.29.94a3,3,0,0,0,1.06-1c.15-.3,0-.58-.48-.86l-.05,0a1.89,1.89,0,0,0-1.34-.23,4.79,4.79,0,0,0-1.55.7,3,3,0,0,0-1.08,1c-.15.3,0,.58.49.86l.05,0a1.87,1.87,0,0,0,1.34.23,4.92,4.92,0,0,0,1.56-.71" fill="#fff"></path><polygon points="154.4 154.7 155.16 155.16 151.53 157.52 153.17 158.5 152.65 158.84 150.25 157.4 154.4 154.7" fill="#fff"></polygon><polygon points="157.4 156.5 158.18 156.96 154.02 159.65 153.25 159.19 157.4 156.5" fill="#fff"></polygon><polygon points="150.93 152.64 153.66 154.26 153.11 154.61 151.16 153.45 149.9 154.26 151.65 155.31 151.13 155.64 149.38 154.6 148.09 155.44 150.04 156.6 149.5 156.96 146.78 155.34 150.93 152.64" fill="#fff"></polygon><path d="M165,161.12l-2.34,3.7-.82-.49.53-.8-2-1.19-1.27.36-.82-.49,5.84-1.62Zm-3.9,1,1.57.94,1.15-1.73-2.73.79" fill="#fff"></path><polygon points="158.97 157.43 162.05 159.26 161.53 159.6 156.16 160.25 158.48 161.63 157.93 161.98 154.76 160.09 155.29 159.76 160.63 159.1 158.42 157.78 158.97 157.43" fill="#fff"></polygon><path d="M168.23,165.89a.74.74,0,0,1-.4.59,2,2,0,0,1-1.22.3,3.21,3.21,0,0,1-1.36-.44l-.09-.05-1.88-1.13,4.15-2.7,1.86,1.11c.48.28.75.56.82.83s-.07.51-.39.72a1.68,1.68,0,0,1-.87.28,2.43,2.43,0,0,1-.94-.16A.83.83,0,0,1,168.23,165.89Zm-1.1.06c.21-.14.29-.29.25-.46s-.21-.34-.5-.52l-1-.57-1.33.86,1,.58.08,0a1.9,1.9,0,0,0,.77.25,1.15,1.15,0,0,0,.72-.17m.51-2.68-1.24.81.94.57,0,0a1.66,1.66,0,0,0,.74.23,1.07,1.07,0,0,0,.67-.17c.19-.12.27-.26.24-.42s-.19-.32-.47-.49l-.93-.55" fill="#fff"></path><polygon points="178.68 169.16 179.44 169.62 177.7 170.75 179.94 172.08 181.68 170.95 182.46 171.41 178.3 174.11 177.53 173.65 179.39 172.44 177.16 171.11 175.29 172.32 174.53 171.86 178.68 169.16" fill="#fff"></polygon><polygon points="174.69 166.79 178.11 168.82 177.57 169.18 176.24 168.38 172.63 170.73 171.85 170.27 175.46 167.93 174.15 167.14 174.69 166.79" fill="#fff"></polygon><polygon points="171.58 164.94 174.3 166.56 173.76 166.91 171.81 165.75 170.55 166.57 172.3 167.6 171.78 167.94 170.03 166.9 168.75 167.74 170.69 168.9 170.15 169.26 167.43 167.64 171.58 164.94" fill="#fff"></polygon><path d="M214.65,190.49l.07,0c.46.28.71.56.76.86s-.11.56-.48.81a3.1,3.1,0,0,1-1.24.41,8.84,8.84,0,0,1-1.66.07,14.2,14.2,0,0,1-1.7-.17l2.26,1.34-.55.35-3.29-2,.5-.32a20.91,20.91,0,0,0,3,.21,3.56,3.56,0,0,0,1.82-.36c.22-.14.33-.28.33-.43s-.12-.31-.39-.47l-.06,0a1.43,1.43,0,0,0-.79-.18,2,2,0,0,0-.89.29l-.74-.44a2.93,2.93,0,0,1,1.58-.41A3.21,3.21,0,0,1,214.65,190.49Z" fill="#fff"></path><path d="M221,194.26l.1.06c.47.28.72.56.77.86s-.11.56-.49.81a3.11,3.11,0,0,1-1.24.4,9.35,9.35,0,0,1-1.68.07,14.27,14.27,0,0,1-1.68-.17l2.25,1.34-.55.36-3.3-2,.49-.32a22.39,22.39,0,0,0,3,.21,3.61,3.61,0,0,0,1.82-.37.62.62,0,0,0,.33-.43c0-.15-.12-.31-.39-.47l-.06,0a1.39,1.39,0,0,0-.79-.18,2,2,0,0,0-.9.29l-.75-.45a3,3,0,0,1,1.59-.41A3.09,3.09,0,0,1,221,194.26Z" fill="#fff"></path><path d="M223.48,195.76l3.06,1.82-.59.39-2.35-1.4-1.23.8a2.36,2.36,0,0,1,.75.08,3.05,3.05,0,0,1,.7.28l.06,0a1.57,1.57,0,0,1,.65.62.7.7,0,0,1,0,.61,1.51,1.51,0,0,1-.52.53,2.74,2.74,0,0,1-1.48.44,3,3,0,0,1-1.51-.4l-.1-.06a1.61,1.61,0,0,1-.86-.94.86.86,0,0,1,.43-.9l.76.45a.53.53,0,0,0-.21.51.84.84,0,0,0,.43.48l0,0a1.69,1.69,0,0,0,.89.23,1.8,1.8,0,0,0,.88-.28c.24-.16.37-.34.35-.53s-.17-.36-.46-.54l0,0a2.06,2.06,0,0,0-.62-.22,1.73,1.73,0,0,0-.65,0l-.74-.44Z" fill="#fff"></path><polygon points="219.7 191.85 220.45 192.29 212.02 195.48 211.28 195.04 219.7 191.85" fill="#fff"></polygon><polygon points="210.68 188.22 212.2 189.13 208.04 191.82 207.24 191.34 210.76 189.05 210.05 188.63 210.68 188.22" fill="#fff"></polygon><polygon points="282.96 188.51 283.81 189.01 282.14 190.11 285.4 189.96 286.43 190.58 282.78 190.69 282.69 193 281.66 192.39 281.78 190.33 280.07 191.45 279.22 190.94 282.96 188.51" fill="#fff"></polygon><polygon points="278.56 185.89 279.41 186.4 278.76 189.2 281.33 187.54 282.18 188.05 278.44 190.47 277.59 189.97 278.21 187.17 275.68 188.83 274.81 188.32 278.56 185.89" fill="#fff"></polygon><path d="M276.49,184.71,274.36,188l-.9-.54.45-.67-1.71-1-1.06.31-.9-.54,5.28-1.46Zm-3.5.88,1.26.75.94-1.4-2.2.65" fill="#fff"></path><path d="M271.33,184.24a.68.68,0,0,1-.36.52,1.75,1.75,0,0,1-1.11.27,2.83,2.83,0,0,1-1.23-.39l-.09-.05-1.83-1.09,3.74-2.43,1.8,1.07c.43.26.68.51.75.76s0,.46-.35.66a1.54,1.54,0,0,1-.78.24,2,2,0,0,1-.84-.14A.72.72,0,0,1,271.33,184.24Zm-1.69.08a.89.89,0,0,0,.56-.14c.17-.11.23-.23.2-.36a.75.75,0,0,0-.39-.4l-.81-.48-1,.67.81.49,0,0a1.5,1.5,0,0,0,.6.2m1.07-2.36-1,.63.77.46,0,0a1.37,1.37,0,0,0,.56.19.85.85,0,0,0,.53-.13c.15-.1.22-.21.19-.33s-.15-.25-.37-.39l-.76-.45" fill="#fff"></path><ellipse cx="223.84" cy="210.54" rx="8.11" ry="5.02" fill="#f15a24"></ellipse><ellipse cx="231.21" cy="214.54" rx="8.11" ry="5.02" fill="#fbb03b"></ellipse></svg>